<svg fill="none" xmlns="http://www.w3.org/2000/svg" viewBox="0 0 546 392"><path d="M452 153a33 28 0 0 1-34 28 33 28 0 0 1-33-28 33 28 0 0 1 33-29 33 28 0 0 1 34 29m-135-28a48 52 0 0 1-48 52 48 52 0 0 1-47-52 48 52 0 0 1 47-52 48 52 0 0 1 48 52m-164 29a33 25 0 0 1-33 26 33 25 0 0 1-33-26 33 25 0 0 1 33-25 33 25 0 0 1 33 25m307 117a43 50 0 0 1-44 50 43 50 0 0 1-43-50 43 50 0 0 1 43-50 43 50 0 0 1 44 50m-296 0a43 50 0 0 1-43 50 43 50 0 0 1-43-50 43 50 0 0 1 43-50 43 50 0 0 1 43 50m135-8a29 47 0 0 1-29 48 29 47 0 0 1-28-48 29 47 0 0 1 28-47 29 47 0 0 1 29 47" fill="#fff"/><path d="M232 351h-7c-6 0-6 0-7-2-2-4-1-8 4-13l5-4-7-4c-8-6-20-18-25-26l-3-7-4 6c-8 10-12 15-21 21l-8 7 1 1c2 1 6 7 6 10l-2 4c-1 1-22 2-25 1s-6-7-5-10c1-1-1-1-12-1h-14v3c0 3 0 5-2 6-2 2-3 2-12 2-13 0-16-1-16-6 0-3 0-4 3-7l5-4c3-1 2-2-4-6-8-5-17-15-22-23l-6-8c-1 0-3 2-4 5-4 5-6 6-9 3l-2-3-1 2-2 3-1-3-3-4c-3-2-3-4 1-14l7-21c3-17 7-28 12-45 8-24 11-35 13-65 2-18 4-27 7-36l2-6-3-3c-9-7-5-21 6-24 5-1 8 0 12 4l4 3 7-3c6-2 9-2 20-2s14 0 19 2l6 2 3-3 6-3c6-2 14 4 15 11 1 4-1 9-3 12-2 1-2 1 0 6 4 8 7 18 10 38l6 29c3 9 11 23 12 21l11-27c4-13 6-23 7-49 1-24 2-35 6-44 2-5 2-5 0-7-3-4-4-7-4-11 0-9 6-16 13-16l8 2c2 1 3 1 8-1 10-5 18-6 29-6 10 0 12 0 20 3 10 3 10 4 19 3 7-1 12 1 15 8 3 5 2 11-2 15l-3 4 3 8c3 11 5 19 6 46 1 30 3 39 13 63l5 11 4-7c7-15 9-24 11-45 2-16 5-28 8-36 3-6 3-6 1-7l-4-5c-2-6-1-11 4-16 6-4 13-4 18 1 2 2 3 2 9 0 10-3 29-3 40 0l8 2 2-2c4-3 6-4 11-4 4 0 6 1 9 4 6 6 6 14 0 20l-4 3 2 5c3 7 5 19 6 38 2 23 6 39 12 57 6 17 9 25 14 47a342 342 0 0 0 11 37c0 3-3 6-5 6l-2 2c-1 2-1 2-4 1-2-2-2-2-3 0-1 3-4 1-6-3s-5-8-6-7l-5 8c-6 11-13 18-21 24l-8 5 4 4c4 4 5 6 5 8 0 5-3 6-17 6-14 1-17 0-18-7l-1-4h-5l-8 1c-3 0-3 1-4 3 0 2-2 4-3 5-3 3-4 3-9 3l-13-1c-7 0-9-1-9-6 0-3 4-8 8-10 5-3 12-2 19 1 5 3 7 3 14 3l13-2 12-3c16-2 30-14 41-31l4-7-3-3c-4-2-11-12-10-12l5 5 8 7c4 2 8 6 8 10l2 2c2 0 3-3 2-6-1-5 2-3 3 1 2 7 4 7 4 0-1-7 0-7 2-3l3 3c2 0 1-4-2-15l-8-27-13-44c-7-20-10-34-13-61-1-16-5-34-7-39-1-1 0-2 4-6s4-4 4-9c-2-11-14-15-22-7l-3 2-7-2c-13-4-28-4-42 0l-7 2-1-2c-3-4-8-5-13-4-5 2-7 5-8 11 0 5 0 5 3 8l3 4-2 5c-4 8-6 19-8 34-2 24-4 32-11 47l-5 10 1 6a166 166 0 0 1 2 81c-2 7-2 7-1 11 3 5 11 14 18 19l9 7 2 2-3-1c-8-4-20-15-26-25l-3-4-3 5a81 81 0 0 1-30 30l3 5c5 5 6 11 3 13-2 2-11 2-13 1h-2l-10 1c-8 0-9-1-11-4-3-3-3-4-3-7l1-3h-25v3c0 4-3 9-5 10zm11-4c4-2 6-2 3 1-3 4 2 4 7 1 6-6 3-15-7-18-9-2-16 0-22 6-4 4-5 6-5 8 0 5 3 6 5 3l2-3v4c-2 2 4 0 6-2h3c1 0 1 1-1 1v2c2 1 4 0 9-3m50 1c0-3 3-2 4 0 0 2 1 2 4 2s3-1 3-3c0-3 1-2 4 1s6 2 5-1q0-3 3 0h2l-1-1-1-1v-1l-2-1v-1c1 1 2 0 2-1h2c-1 2 0 3 1 3l1 1v2c3-2-6-15-9-13l-1-1c1-1-5-3-10-3-4 0-10 2-13 4-5 5-3 17 4 16 2 0 2-1 2-2m7 0h2c1 1 0 1-1 1-2 0-2 0-1-1m11-1-1-2 1-2 1 3c0 2-1 3-1 1m9 2h-2l-2 1zm-231-6c1-2 1-2 2 0h10c3 2 5-1 5-6 1-4 1-4-3-6l-10-3c-6 0-6 0-10 3-4 4-5 10-3 11l4-1c1-1 2-2 3-1l-1 1c-2 1-2 3 0 3zm56 0h3c3 2 7 1 6 0-1-3 2-3 4-1s5 3 5 2l-1-3v-2h2l-1-1-1-1c1-2-1-5-5-7-5-2-15-2-18 1-4 2-4 8-1 11 2 2 6 3 7 1m240-1c2-1 2-1 1 1l3 1 5-1h1l2 1c3 0 7-3 8-7 1-1 0-2-4-4l-5-3c-1-2-13-1-17 1s-7 7-6 10 2 3 6 1c4-3 6-2 2 0l-1 2zm57 1h6c3 0 4 0 3-1-2-1-1-2 2-1 4 2 5 0 4-4-2-4-7-8-9-8l-20 3c-2 1-2 2-2 5s0 4 2 5c2 2 13 3 14 1m-156-9c5-6 15-7 23-4 4 1 4 1 10-3 7-4 13-10 12-11l1-1 4-3c14-16 21-41 18-72-2-22-5-33-15-56-8-21-10-31-11-62-1-25-2-31-6-43l-2-10 1-2h1c1 0 4-5 4-9s-3-9-7-12c-4-2-12-2-14 1h-2c-1-2-13-6-21-7-13-2-27 0-43 7-3 2-4 2-4 1 0-2-4-4-9-4-7 1-12 10-11 17l4 7c3 3 3 3 1 7l-1 5v1c-2-2-5 17-6 42-1 26-2 35-8 51l-2 8v1a155 155 0 0 0-12 105c3 8 9 19 11 18v1c0 2 10 13 18 19 7 4 7 4 11 3 5-1 12-1 16 1h5v1c0 1 3 3 4 2l1 1c-1 2 6 3 18 2 7 0 9 0 11-2m-67-11h1c2 0 2 1 1 1zm80-40c0-7-2-12-3-12 0 0-2-2 0-2 2 1 2 0 5-6a190 190 0 0 0 16-54c1 0 0 10-2 19a217 217 0 0 1-16 45c0 3 0 3 3 3 11 0 23-13 34-34 2-4 4-8 5-7 1 0-5 13-12 23-8 12-18 20-26 20-3 0-3 0-3 4-1 4-1 4-1 1m-58-2-4-3h-5l-1-1-2-2q-7.5-3-15-15c-7-9-16-26-15-26l5 6c8 16 21 33 24 32h2c-1 1 5 4 9 4 3 0 2-3-2-15a165 165 0 0 1-12-52c2-1 3 2 3 8 2 15 6 31 11 44l4 9v3l-1 4zm60-7 1-1 1 1c1 1 0 1-1 1zm-69-56 2-8-1 10c-1 1-1 1-1-2m37-67h5c1 1 0 1-3 1-2 0-3 0-2-1m22-8c4-5 7-10 7-15 0-10-8-20-16-23-5-2-16-2-22-1-3 1-10 7-12 11l-3 8c-2 4-2 5-2 2 0-8 6-17 14-21 4-2 7-2 13-2 11 0 16 2 22 8 5 5 7 10 7 18 0 6-4 14-9 17-3 2-3 2 1-2m-32-2-3-2 3 1c4 2 9 2 10 0h10c5-1 6-1 2 2-4 2-19 2-22-1m-16-9v-1 2zm21-7c-5-3-8-10-5-13 2-2 14-3 19-2 4 1 6 3 5 8s-5 8-12 8zm-25-26c-3-3-3-7 0-11 4-3 7-2 10 2 5 8-4 17-10 9m6-6v-3c-3-2-6 0-4 3zm47 7c-3-3-3-8 0-11 4-4 9-3 11 3 3 7-6 14-11 8m7-8c0-2-3-4-4-2-2 1-1 4 2 4zm-79-25c-2-1-4-6-4-8 0-3 0-3 1 1l3 5c2 2 2 4 0 2m97-2 1-1 3-2 2-2c1 1-3 6-4 6zm-3-5 1-2c1-2 0-4-2-3-3 0-3-1 0-4 2-3 5-2 5 2 1 3 1 4-1 6-1 1-2 2-3 1m-91-1c-1-1 0-4 2-5 2-2 6-3 7-1l-2 1c-2-1-6 3-5 5 1 1 0 2-2 0m-86 271c3-2 10-4 16-3 4 1 5 1 12-5 10-7 14-12 21-21l5-8-2-7c-3-9-4-21-4-35 0-15 1-25 5-40l3-11-3-4c-9-13-13-26-16-51-2-16-6-31-10-37-2-3-2-3 1-7 9-12-5-26-16-17l-3 3-5-1a63 63 0 0 0-45 2c-3 1-3 1-7-2-4-5-7-6-13-4-7 3-10 12-6 19l3 3 2 1c1 1 1 2-2 8-3 8-5 20-6 32-2 29-5 43-13 69a469 469 0 0 0-19 67l-3 9v3l1-3c1-3 4-4 4-2l-2 4c-1 2-1 5 1 5 1 0 2-4 1-6l2-1h4l1 4 1 4 4-4c2-2 4-5 6-5 4-2 9-8 13-13 1-2 2-3 3-2 0 0-5 8-10 12l-4 5 3 6c8 13 23 26 35 30l9 3c5 2 10 3 20 3 8-1 10-1 13-3m-24-166 7-1 13 1-12 1c-9 0-11 0-8-1m-6-1h2l-2 1zm8-16c-4-1-6-4-6-6s1-2 11-2c12 0 13 1 8 5-3 4-9 5-13 3m-21-19c-4-5-2-12 4-12s8 9 4 12c-3 3-5 3-8 0m45-1c-2-1-3-4-3-5 0-5 7-8 10-4s2 9-3 12zM74 99c-1-4 0-7 4-9l5-1-2 1c-4 2-5 3-5 7-1 3-1 3-2 2m85-3-4-4c-4-2-4-3-1-3s7 4 7 8c0 3-2 3-2-1M42 294c0-2-1-2-1-1l-1 2c1 2 2 1 2-1m462 1v-1c-1-1-1 0-1 1s0 2 1 0m-95-131 10-1 10 1zm5-16c-3-2-6-5-5-7s3-2 10-2l10 1c3 2-4 9-9 9zm-22-21c-3-5 0-11 6-11 3 1 6 5 5 8-1 5-8 7-11 3m45 0c-2-3-2-7 1-9 3-3 4-3 7-1 4 3 4 7 1 10-2 3-7 3-9 0m27-28c2-4 0-8-4-8l-3-1c0-2 5-1 7 2 3 3 3 5 1 8-2 2-2 2-1-1m-88-2c0-3 3-6 6-7s2 0-1 2c-2 1-3 3-3 5l-1 2z"/><path d="M126 295h-5v-41l-2 1-2 2-5 5-3-4 13-11h5z" aria-label="1" font-size="67.1"/><path d="M433 271q0 8-2 14-1 6-5 9-3 3-9 3-9 0-13-7t-4-19q0-8 2-13 1-6 5-9t10-3q8 0 12 7 4 6 4 18m-27 0q0 11 3 16 2 5 8 5 5 0 7-5 3-5 3-16 0-10-3-15-2-5-7-5-6 0-8 5-3 5-3 15" aria-label="0" font-size="69.3"/><path d="m233 352-6-1c-5 1-9 0-10-2-1-4 1-9 5-13 2-2 4-4 3-5l-7-5c-9-6-18-16-23-24l-3-7-5 7c-7 10-11 14-20 20-9 7-9 7-6 9 2 2 5 6 5 9 0 5-3 6-15 6-14 0-16-1-17-8v-4h-26l1 3-3 6-2 3-11-1c-12 0-15-1-15-6 0-4 2-8 6-11l4-2-5-3c-9-6-15-12-22-22l-7-10-5 5-5 5-4-4-2 1-1 2-4-4-3-6 3-10 6-18 13-49c8-23 11-35 13-66 2-17 4-27 7-35l2-5-4-3c-5-6-6-13 0-19 6-7 14-7 20-1l3 3 4-2c12-5 29-6 42-1l6 1 4-3c5-3 9-4 14-1 8 5 9 16 2 22v3c5 8 9 22 11 44l4 20c1 6 8 20 12 26l1 2 1-2c4-7 12-30 14-37 2-11 3-16 4-42 1-23 3-35 6-42 2-3 2-3-1-7-11-13 5-32 18-23 2 1 3 1 8-2 18-7 39-8 54-1 5 3 6 3 10 2 8-3 15 0 19 7 3 5 2 11-2 16l-2 4 2 8c4 10 5 19 6 45a146 146 0 0 0 18 74 110 110 0 0 0 15-51c2-17 4-25 7-34l3-7-3-3c-7-10-1-23 11-23 4 0 5 1 8 3l4 3 5-2c5-2 9-2 20-2 13 0 15 0 22 2l7 2 3-2c3-3 8-5 12-4 12 3 16 18 6 25l-3 2 2 5c3 10 5 18 6 31 3 32 5 43 14 69a509 509 0 0 1 19 66c5 14 5 15 3 17l-4 2-2 2c0 2-2 3-4 1-1-2-2-2-2 0-2 3-5 1-8-4-1-3-3-5-4-5l-5 7a91 91 0 0 1-30 29l2 2c6 3 9 13 5 15-3 2-27 2-29 1-3-2-4-5-4-8s0-3-4-3l-8 1c-5 0-5 0-6 3l-3 6c-2 2-3 2-15 2l-16-3v-6l5-6 3-3-7-5c-10-6-16-13-21-20l-4-5-3 5c-5 8-17 21-25 26l-5 3 2 3c4 5 6 7 6 11 0 3-1 4-2 5h-34c-3-1-5-7-5-10v-2h-12l-12-1v4c0 4-2 8-6 10h-8c-1-2-1-2-5 0zm194-39c10-4 18-12 22-24 2-7 3-21 0-29-5-21-23-34-40-29-22 7-34 39-23 64 6 12 17 19 29 19zm-293-3c23-11 28-49 9-70-16-17-41-12-51 10-8 18-6 39 6 52 7 8 13 10 23 10 7 0 9 0 13-2m149-4c10-5 16-21 15-29s-1-7-2-7v-6l1-2-1-9v-7c0-2-2 4-3-5 0-8-6-20-23-20s-23 15-24 21l-3 15v-9 11l-1 17c-1 9 10 30 23 33 6 1 11 0 18-3M132 171q12-6 12-18c0-7-3-12-7-16-5-4-7-5-17-5-9 0-13 1-19 7-10 12-5 28 11 33 5 1 14 1 20-1m-25-7h3l7-1 4-1 8 1 4 1zm6-18c-4-2-6-4-4-7h22c1 2-2 6-5 8-4 2-8 1-13-1m317 23c8-3 11-9 11-16 0-8-5-16-12-19-4-1-15-1-20 1-8 3-12 10-12 19 0 11 9 19 23 18 4 0 8-1 10-3m-22-5h3l6-1c3-1 13 0 13 1zm5-17c-3-2-6-6-4-7l10-1c10 1 10 1 11 3l-3 4c-4 4-9 4-14 1m-128 0c10-5 15-15 11-26-3-11-11-17-23-18-17-1-27 7-29 24 0 4 0 6 2 10 3 7 10 12 16 13l4 1c3 1 14-1 19-4m-27-6c-4-3-4-3 1-1 4 2 10 2 10 0 1-2 1-2 3 0h10c2-1 2-1 1 1-2 1-4 2-12 2-9 0-10 0-13-2m5-17c-4-3-6-9-5-12 2-2 9-3 16-3 9 1 11 5 8 12-2 5-13 7-19 3m-19-31c1-3-1-5-3-3v3c1 2 3 1 3 0m55-1c0-2-3-4-4-2-2 1-1 4 2 4z" fill="#009a9a"/><path d="m267 275 1-4 1-4 4-3 3-4 2-2 1-4q0-3-2-4-2-2-6-2l-5 1-5 2-2-5 6-2 7-1q6 0 9 3 4 3 4 8l-1 5-3 4-4 4-3 3q-2 1-2 3v4h-5zm-1 11 1-3 3-1 2 1q2 1 2 3 0 3-2 4l-2 1-3-1z" aria-label="?" font-size="64.9"/><path d="M232.2 351.2c-.3-.4-3.6-.5-7.1-.4-6 .2-6.6 0-7.6-2.3-1.7-3.6-.4-7.2 4.5-12.4l4.3-4.6-6.1-4a96 96 0 0 1-25-25.9l-3.9-6.7-4 5.7a77 77 0 0 1-20.2 21.2 56 56 0 0 0-8.5 7.1q0 .7 1.5 1.3c2.1.9 5.5 6.8 5.5 9.8 0 1.5-.7 3.2-1.4 3.8a82 82 0 0 1-25.4 1c-2.6-1-5.6-7.1-4.8-9.7.5-1.6-.8-1.7-12.7-1.7H108v3.7a8 8 0 0 1-2.2 6c-2 2-3 2.1-12.4 1.9-12.7-.3-15.2-1.3-15.6-6.3-.3-2.9.3-4.3 2.8-7.2 1.7-2 4-3.8 5-4.1 3-1 2.5-1.7-3.6-5.5-8-5-17.3-14.8-22.5-23.5-2.4-4.1-5-7.5-5.6-7.5-.7 0-2.6 2-4.4 4.4-4.1 5.8-5.9 6.4-8.5 3l-2.1-2.5-1.5 2.2-1.5 2.3-1.3-2.5c-.8-1.3-2.2-3-3.2-3.7-2.6-1.9-2.3-4.2 1.7-14 1.9-4.8 4.8-14.6 6.4-21.8 3.7-16.4 6.8-27.3 12.6-44.4 8-24 10.3-35 13-64.6 1.5-18.3 3.2-28 6.4-37l2-5.6-3-2.5c-8.3-7-4.5-21.1 6.6-24.2 4.6-1.3 8.1-.3 12 3.3l3.4 3.3 7.3-2.6a47 47 0 0 1 20.3-2.6c10.6 0 14 .4 18.8 2.1l5.9 2.1 3.2-2.8a18 18 0 0 1 5.8-3.4c6.2-1.6 14 4.1 15.4 11.2.7 3.8-1 9.4-3.6 11.8-2 1.7-2 1.8.4 6.3 4.1 8.2 6.6 18.2 9.6 38.4 1.9 12.9 3.9 22.7 5.8 28.3 3.2 9.2 11 23.2 12.1 21.8 1.3-1.4 7.9-17.6 11-27 4.4-13.1 6-23.8 7-49.8 1-23.6 2.5-34.5 6.1-44 1.9-4.8 1.9-5 0-7-3-3.4-4-6.1-4-11 0-8.8 5.9-15.5 13.6-15.5 2.5 0 5.8.6 7.3 1.5 2.7 1.3 3.3 1.3 8.4-1a64 64 0 0 1 29.2-5.8c9.8 0 12 .4 20 3.2 9.6 3.5 10 3.5 18.7 2.5 7.2-.8 11.6 1.6 14.8 8.1 2.7 5.6 2 11.3-2 15.8l-2.8 3.2 2.8 8.5c3.6 10.8 4.7 19.4 5.9 46 1.4 30 3.2 38.7 13 62.6l4.9 11.7 4-7.9c7-14.2 9.5-23.8 11.7-44.9q2.5-24 7.9-35.9c2.4-5.4 2.4-5.7.6-6.6-1-.5-2.6-3-3.6-5.5q-3.4-8.9 4.1-15.4c5.3-4.6 12.2-4.3 18 1 2 1.8 2.2 1.8 8.5-.3a83 83 0 0 1 40.2.1l7.8 2.4 2.2-2c3.6-3.3 6.3-4.3 11.3-4.3 4.1 0 5.2.5 8.5 3.8 6.6 6.6 6.6 14.1 0 20l-3.8 3.4 1.8 4.6a159 159 0 0 1 6.5 38.2c2 22.4 5.4 39 11.7 56.5 6.4 17.8 8.8 25.8 14.3 47.6 2.4 9.7 5.8 21.3 7.4 25.8s3 9.5 3 11c0 2.6-2.5 6-4.5 6q-1 .2-2.2 2.2c-1.3 2-1.5 2-3.8.4-2.2-1.4-2.5-1.4-3 0-1.2 3-4.4 1.6-6.5-3-2-4-4.6-7.3-5.3-6.4l-5 8.1a72 72 0 0 1-21.9 23.4l-7.5 5a36 36 0 0 0 4.3 4.6c3.4 3.4 4.5 5.3 4.5 7.6 0 5-2.7 6-16.8 6.5-14.4.5-16.8-.5-17.9-7.5l-.6-4-5.1.6c-2.8.3-6.6.6-8.3.6-2.7 0-3.3.4-3.8 3-.4 1.6-2 4-3.6 5.4-2.5 2.1-3.7 2.4-9.2 2.1L381 345c-7-.1-9.3-1.7-9.3-6.1 0-3.3 3.9-8.4 8-10.6 4.8-2.4 12.7-1.8 19.4 1.6 5 2.5 7.2 3 13.3 3 4.5 0 9.4-.7 13-2 3.2-1 9-2.4 12.8-3 15.6-2.6 30-13.8 40.4-31.5l4-6.9-3.2-2.3c-3.4-2.4-10.4-12-9.5-12.9.3-.2 2.4 2 4.7 5 2.2 3 5.9 6.5 8 7.5a17 17 0 0 1 8.7 9.7c.3 1.3 1.2 2.4 2 2.4 1.7 0 2.6-3.2 1.8-6.4-1-4.3 1.3-3 2.8 1.6 2.2 6.6 4.2 6.3 3.5-.6q-1.2-9.3 2.6-2.6c1 1.6 2.2 3 2.6 3 2.3 0 1.7-4.3-1.9-14.9-2.2-6.4-5.8-18.8-8-27.6a355 355 0 0 0-13-43.4 213 213 0 0 1-12.5-61.6 151 151 0 0 0-7.4-38.2c-.8-1.4 0-2.6 3.6-6 4.4-4.1 4.5-4.3 4-9.3-1-11.4-13.3-15.6-21.8-7.4l-2.8 2.6-6.5-2.2a68 68 0 0 0-42.8 0l-6.1 1.9-1.9-2.4c-2.7-3.4-8-5-12.2-3.6q-7.6 2.5-8.4 11c-.4 4.7-.2 5.3 3 8.5l3.4 3.4-2.4 5.3a113 113 0 0 0-7.7 34.1c-2.6 23.9-4.5 31.4-11.8 46.7l-5 10.4 1.7 5.6a177 177 0 0 1 6.1 53.9 99 99 0 0 1-4.7 27.5c-2 6.3-2 7-.6 10a65 65 0 0 0 17.8 19.7c3.4 2.5 7.4 5.5 8.9 6.8l2.6 2.3-3-1.5a80 80 0 0 1-26.8-25l-2.6-3.9-2.5 5a81 81 0 0 1-30.5 29.9c-.2.1 1.3 2.3 3.3 4.8 4.4 5.2 5.8 11.3 3.2 13.5-2.1 1.7-11.6 2.4-13.3 1q-1.4-1.2-2.6-.1c-.8.6-4.8 1-9.6.8-8-.2-8.4-.3-11.4-3.5-2.4-2.8-2.9-4-2.4-6.8l.5-3.3h-24.8v3c0 3.8-2.4 8.6-5 10-2.5 1.3-7.3 1.3-8.7-.1q-1-1.2-3.2 0c-2.2 1.2-7.4 1.5-8.5.4m10.7-4c4.2-2.7 6-2.4 3.3.5-3.5 3.9 1.8 4.4 6.3.6 6.3-5.3 2.8-14.7-6.5-17.3a21 21 0 0 0-22.7 6c-3.7 3.9-4.7 5.6-4.7 8.3 0 4.4 3.5 5.8 5.2 2 .6-1.3 1.5-2.4 2-2.4 1.2 0 1 2.4-.5 3.9-1.8 1.8 4.2.3 6.5-1.7.9-.8 2.2-1 2.8-.7q1.3.7-.5 1.7-2 1-.4 1.9c1.8 1 4.4.3 9.2-2.8m49.9.4c-.4-2.5 2.8-2.2 3.5.3.4 1.7 1.2 2 4.1 1.8 3.1-.3 3.6-.7 3.4-2.6-.3-2.9.8-2.8 4.2.3 3.2 3 6 2.6 5-.5q-1-3.7 2.7-.4 1.8 1.5 1.9.5-.1-1-1-1.1t-.5-1q.4-1-.6-.8t-1.7-1.2q-.5-1.3.3-.8c.4.4 1.4 0 2.1-1q1.3-1.6 1.3-.7c-.3 2.3.1 3.6 1 3q1-.4 1 1.6t.7 1.6c2.1-2.2-6.5-14.4-9.3-13.3q-1.3.4-.9-.4c.7-1-5.6-3-9.8-3s-10 2-13 4.4c-6 4.6-3.4 16.2 3.2 15.4q2.8-.2 2.4-2m6.5.6q1.3-.4 2.5 0 .9.5-1.2.5-2.2 0-1.3-.5m11.2-1-.4-2.6q-.3-1.6.6-1.7c.5 0 .9 1.1.9 2.5 0 2.2-1 3.6-1.1 1.7m9.5 1.8q.3-.6-2-.4c-1.3.3-2.4.7-2.4.9 0 .8 3.9.4 4.4-.5m-231.4-6.6c1-1.4 1.4-1.3 2.5.2 1 1.4 1.8 1.5 4.6.6q3.5-1 5.1 0c2.5 1.6 4.8-1 5.4-6.1.4-4 .3-4.2-3.8-6.3a33 33 0 0 0-9.9-2.7c-5.4-.4-5.9-.3-9.2 2.9-4.1 3.9-5.9 9.5-3.3 10.5 1 .4 2.5-.2 3.6-1.2s2.3-1.4 2.7-1q.6.8-1 1.7c-2 1-1.5 2.9.7 2.9.7 0 1.9-.7 2.6-1.5m56.5.5q.6-1 2.5 0c3 1.6 7.3 1.3 6.6-.5-1-2.5 1.4-2.9 3.8-.6 2 2 4.6 2.8 4.6 1.5 0-.3-.5-1.5-1.1-2.6-1-1.8-1-2 .5-1.5q1.5.5 1.6-1 0-1.2-1.2-.7t-.4-.4c1.1-2-1.4-5.3-5.1-6.9-5.3-2.1-15-2-18.2.4-3.5 2.6-4.1 8.3-1.2 11.2 2.2 2.2 6.5 2.8 7.6 1m239.4-.7c2.3-1.6 2.4-1.6 1.7.1-.6 1.6-.2 1.7 2.6 1.3 1.8-.2 4.1-.8 5.2-1.2q2-.9 1.2.3-.7 1.2 1.8 1.2c2.9 0 7.1-3.5 8-6.7.6-1.9 0-2.5-3.8-4.1a17 17 0 0 1-5-3.1c-1.3-2-13.7-1.4-17.3.8-3.8 2.3-6.7 7.4-5.8 10.1.7 2.4 1.3 2.4 5.3.4 4.2-2 6.6-1.3 2.7.9q-3.6 1.8-1 1.6c1.1 0 3.1-.7 4.4-1.6m57.6.7c.3-.5 2.6-.7 5.3-.4q4.9.6 3.2-.5c-2.3-1.6-.6-2.3 2.5-1.1q5.8 2 3.5-3.8c-1.6-4-6.4-8.4-9.2-8.5a98 98 0 0 0-19.3 3.3c-2.1.8-2.5 1.6-2.5 4.9q0 4 1.8 5.3c2.3 1.5 13.8 2.2 14.7.8m-156.6-9.5c5.5-5.3 15.3-7 23.4-4 3.8 1.3 4 1.2 9.4-2.2 7.3-4.7 13.4-10.3 12.6-11.6q-.5-.9.4-.4c.6.4 2.6-1 4.4-3 14.5-16.2 20.6-41.3 17.9-72.7a160 160 0 0 0-14.3-56.1c-8.5-20.7-10.3-30.3-11.7-62-1.1-25-2-30.9-5.7-42.8a25 25 0 0 1-1.7-9.6c.4-.9.6-2 .5-2.4q0-.7.8-.3c1.4 1 4-4.7 4-8.6 0-4-2.9-9-6.5-11.5-3.8-2.5-12.2-2.3-14 .2q-1.5 2-2.3.8c-1.1-2-12.8-6-21.1-7.3a74 74 0 0 0-43.3 7.3q-3.8 1.8-3.5.5c.4-2-4.4-4-8.6-3.4-7.2.8-12.7 9-11.2 16.8.3 1.9 2 4.8 3.6 6.5 3 3.1 3 3.2 1.5 6.9-.9 2-1.4 4.4-1 5.1q.2 1.3-.4.9c-2.3-1.4-4.8 17.2-5.6 41.9-1 26.7-2.4 35.5-8.1 51.6-1.4 3.8-2.2 7.5-1.8 8.1q.5 1.2-.1.5c-1.4-1.2-8 14.7-11.6 28a161 161 0 0 0-.4 76.8c2.6 8.5 8.4 19.1 10.3 18.7q1 0 .6 1.1c-.7 1.8 9.6 12.2 17.9 18.1 6.6 4.7 7 4.8 10.6 3.7a28 28 0 0 1 16.7.4c2 .8 4 1.2 4.6.8q1-.5.4.5c-.8 1.2 2.7 3.5 3.8 2.4q.7-.5.4.8c-.4 2 6.9 3 18.1 2.4 7.3-.4 8.9-.8 11-2.9M219.1 323q-.6-.9 1-.4 2.6 1.2.5 1.4-.9-.1-1.5-1m79.6-39.6c-.4-7.6-1.5-12.4-2.7-12.4-.7-.3-2.3-1.8-.3-2 1.8 1 2.1.4 5-5.7a195 195 0 0 0 14.4-48.6c.3-3.1 1-5.7 1.6-5.7 1.3 0 .4 9.4-1.7 19-2 9.1-7 24-11.5 34-2 4.7-4 9.7-4.3 11.2-.6 2.6-.5 2.8 2.6 2.8 10.6-.1 23.3-12.9 33.9-34 2.2-4.4 4.4-7.8 5-7.5 1.1.8-5 13-11.8 23.2-8.3 12.5-18.1 20.2-26 20.3-3 0-3.2.2-3.6 4.2q-.4 4.7-.6 1.2m-58-2.1c-.1-1.7-1-2.5-4.2-3.3-2.2-.6-4.5-.8-5.1-.4q-1 .5-.5-.3.4-1-2-2.2a44 44 0 0 1-15.6-15c-6.9-9.6-16-26.1-14.4-26.1.6 0 2.6 2.8 4.4 6.3 8.1 15.6 21.5 32.6 24.8 31.3q1.3-.4 1.2.5c-.3 1.3 5.6 3.7 9 3.8 3.3.1 3-3-1.8-14.8-2.2-5.6-5.1-15-6.5-20.9a210 210 0 0 1-5-31c1.3-1.3 2.4 1.6 3 7.5 1.6 14.8 5.5 31 10.7 44.4 3 8 3.3 7.7 3.6 8.9q.4 1.5.2 2.8c-.1 1 .3-.2-.6 4.4-.6 3.5-1.1 5.3-1.2 4m59.9-7.3q0-1 1-1 .8 0 1.5 1 .4.9-1 1-1.3-.1-1.5-1m-69-56c0-4.4 1-8 2.1-8 1 0 0 7.7-1.2 10q-.9 1.5-.9-2m37.2-66.7c1.6-.3 3.8-.3 5 0s0 .4-2.7.4q-4.4 0-2.3-.4m22-8q6.8-7.7 6.8-15.3c0-9.6-7.3-20.6-15.7-23.4-5.4-1.8-16-2.1-21.7-.5a29 29 0 0 0-12.9 10.3c-.6 1.1-1.9 4.8-2.9 8-1.3 4.8-1.7 5.4-1.8 3-.1-8 5.8-17 14-21.2 4.6-2.2 6.8-2.7 13.5-2.7 10.5 0 16 2.1 21.8 8.5a24 24 0 0 1 6.7 17.7c0 6-3.7 13.7-8.3 17.3-3.2 2.4-3.2 2.4.5-1.8m-32.5-2.2c-1.5-.9-2.7-2-2.7-2.3 0-.4 1.5.2 3.4 1.3 3.5 2 8.8 2 10-.1.3-.5 1.9-.3 3.5.3 2.1.8 4 .8 6.7-.1 4.7-1.5 5.5-.9 1.5 1.2a38 38 0 0 1-22.4-.3m-15.6-9.1q.1-2.2.5-1.3c.3.7.3 1.8 0 2.5q-.4 1-.5-1.2m20.6-7.6c-4.8-2.6-7.2-9.8-4.3-12.7 1.9-1.9 14.1-3 18.8-1.7 4.4 1.2 5.7 3.3 5 7.7-.7 5.1-5.2 8.3-11.6 8.2a21 21 0 0 1-7.9-1.5m-24.7-25c-2.8-3.7-2.6-8 .5-11q4.9-5 9.2 1.6c5.4 7.9-3.8 16.8-9.7 9.3m5.7-6.6q1.4-1.2.1-2.5c-2.2-2.6-5.3-.8-4 2.4.5 1.6 2.4 1.6 4 .1m47.3 7.2c-3-2.9-2.7-8.5.4-11.6 4-4 8.4-2.6 10.6 3 2.8 7.6-5.6 14-11 8.6m6.8-8.3c.4-2-2.5-3.4-4-2-1.6 1.6-.2 4.5 1.9 4 1 0 1.9-1 2-2M220 67.1a12 12 0 0 1-4.4-8.7c.1-3 .1-3 1.6 1 .7 2 2.1 4.7 3 5.7 1.8 1.9 1.6 3.2-.2 2m97-2.2q-.4-1 1-1c.8 0 2.1-1 3-2.2q1.4-2 2.2-1.5c.7.7-3.4 5.7-4.7 5.7q-.8-.1-1.4-1m-3-5.1q-.4-1 .6-2.4c1.5-2 .4-3.5-2-2.8q-3.7 1 0-3.6c2.5-3 4.7-2.2 5.5 2.2.5 2.8.2 4-1.4 5.6q-2 1.9-2.7 1m-90.8-.6c-1.2-1.2-.6-4 1.2-5.6 2.3-2.2 6.3-2.6 7-.8q.5 1.5-1.2.8c-2-.8-6 2.9-5.2 4.9.5 1.4-.6 1.9-1.8.7M136.5 330a24 24 0 0 1 16-3c4.3.5 4.9.3 12-5a76 76 0 0 0 20.9-21.3l5-7.6-1.8-6.9a136 136 0 0 1-4-35.3 149 149 0 0 1 5-39.9l2.8-11.3-3-4.3c-8.5-12.7-12.5-25.7-15.8-51-2.1-16-6-30.7-10-37-1.8-2.8-1.8-2.8 1-6.8 8.8-12-4.5-26.2-15.5-16.6l-3.6 3.1-5.2-1.5a63 63 0 0 0-45 1.9c-2.7 1.4-3 1.3-6-2C85 81 81.3 80 76.1 82a12.7 12.7 0 0 0-6.6 18.6c1 1.8 2.3 3.3 2.7 3.3s1.4.4 2.1.9c1.1.7.9 2.1-1.2 7.9-3 8.3-5.3 20.2-6.1 32.2-2.1 28.7-4.9 43-13.4 69a457 457 0 0 0-13.5 48.6c-1.4 6.2-3.9 14.2-5.6 18-1.7 3.6-3 7.8-3 9.3v2.6l1.2-2.4c1.4-2.8 3.8-4 3.8-2 0 .8-.7 2.4-1.5 3.6-1.5 2-1.2 5.3.6 5.3 1 0 2.3-4.6 1.5-5.8q-.3-.9 1.6-1c1.3 0 3-.2 3.8-.4 1.1-.2 1.4.6 1.3 4-.1 2.3.2 4.2.6 4.2.5 0 2.3-1.8 4-4a23 23 0 0 1 6.6-5.6c3.3-1.5 9-7.3 12.8-12.9 1-1.4 2.1-2.4 2.4-2.1 1 .9-4.6 8.5-9.4 13l-4.5 4.2 3.7 6.3a69 69 0 0 0 35 29.6c3.2 1 7.3 2.4 9 3.3 4.7 2.5 9.3 3.1 19.7 2.7 7.9-.3 10.2-.7 12.7-2.4M113 163.6c2.2-.5 5.3-.8 7-.7l8.3.1c3 0 5 .3 4.7.7s-5.9.6-12.3.7c-9.1.1-10.8 0-7.7-.8m-6.7-.4c.7-.3 1.6-.3 1.9 0q.3.6-1.3.6-1.8 0-.6-.6m8.2-16.4c-3.6-1.5-6-4-6-6 0-1.8 1-2 11-2 12.2 0 13 .7 8 5.5-3.1 3-9 4.2-13 2.5M94 127.4c-4.3-4.3-2.1-11.5 3.5-11.5 5.8 0 8.7 8.4 4.1 12.1-3 2.5-4.6 2.4-7.6-.6m44.6-.4c-1.7-1.6-3-4-3-5.4 0-5.3 7.4-7.8 10.4-3.5s1.7 8.4-3.2 11.2c-.7.4-2.5-.5-4.2-2.3M74.2 98.7a6.7 6.7 0 0 1 3.2-9c1.9-1 4.1-1.4 5-1q1.8.5-1.4 1.5c-4.4 1.4-5.3 2.5-5.7 6.5q-.2 4-1.1 2m84.2-2.6c-.2-2-1.3-3.1-3.6-4.2-3.6-1.7-4.2-3-1.2-3 2.9 0 7 4.4 7 7.4 0 3.5-1.8 3.3-2.2-.2M41.6 293.7q0-2.4-1.1-1.1-1 1.1-.5 2.2 1.5 2.5 1.6-1.1M504 295q.4-1-.4-1.6-1-.5-1 1 .1 2.6 1.4.6m-95-131c-.7-.4 3.7-.8 9.7-.9 6.4 0 10.7.2 10.3.8-.7 1-18.4 1.2-20 .1m4.9-16.7c-3.5-1.5-5.8-4.9-5-7.1.5-1 2.7-1.4 9.4-1.4 4.8 0 9.4.4 10.1.9 3.5 2.2-3.3 9.1-8.8 9-1.4 0-4-.6-5.7-1.4m-21.8-20.7c-3.3-4.8-.1-11.3 5.2-10.6 3.3.4 6.7 4.8 5.8 7.7-1.7 5.3-8 7-11 2.9m45 0q-3.3-5 1-9.4c3-3 3.7-3 7-.1 3.2 2.7 3.6 6.8 1 9.7-2.5 2.7-7 2.6-9-.2m26.5-28c1.9-4.2 0-7.8-4-7.8-1.7 0-3-.5-3-1 0-2 5.1-1 7.5 1.4q4.5 4.5.4 8.2c-2 1.8-2.1 1.8-.9-.9m-88-2c0-3 2.8-6.4 5.7-7.3 3.2-1 2.8.7-.7 2.7q-3 1.7-3 4.2c0 1.4-.5 2.6-1 2.6q-1-.2-1-2.3" fill="#000"/><path d="M126.3 295.2h-5.8V257l.3-3.7-2 1.9-2.2 1.8-5 4.2-3.2-4 13-10h4.9z" aria-label="1" font-size="67.1" fill="#000"/><path d="M432.8 271.2q0 8-1.6 13.7t-5.3 8.7-9.5 3q-8.4 0-12.4-6.7t-4-18.7q0-8 1.6-13.7t5.3-8.7 9.5-3q8.3 0 12.4 6.7 4 6.6 4 18.7m-26.7 0q0 10.2 2.3 15.2 2.4 5 8 5t7.9-5 2.4-15.2q0-10.1-2.4-15.2t-8-5-7.9 5-2.3 15.2" aria-label="0" font-size="69.3" fill="#000"/><path d="M267 274.9q0-2.5.4-4.2.5-1.9 1.7-3.5t3.3-3.4q2.5-2.1 3.9-3.5 1.4-1.5 2-2.8.6-1.4.6-3.3 0-3.1-2-4.8t-5.9-1.7q-3.2 0-5.6.8-2.5.8-4.8 2l-2-4.6q2.6-1.4 5.7-2.3 3.2-1 7-1 6.3 0 9.6 3.1 3.4 3 3.4 8.3 0 3-1 5t-2.6 3.8-4 3.6q-2.2 1.9-3.4 3.2-1 1.4-1.5 2.8-.3 1.3-.3 3.1v1.1h-4.6zm-1.6 11.3q0-2.4 1.1-3.4t3-1q1.6 0 2.7 1t1.2 3.4q0 2.3-1.2 3.4-1.1 1-2.8 1t-2.9-1q-1-1-1-3.4" aria-label="?" font-size="64.9" fill="#000"/></svg>