<svg xmlns="http://www.w3.org/2000/svg" fill="none" viewBox="0 0 546 392"><ellipse cx="259.2" cy="79.7" fill="#fff" rx="34.9" ry="35.8"/><ellipse cx="159.3" cy="83.5" fill="#fff" rx="38.7" ry="37.3"/><path fill="#fff" d="M204.1 125.5h28.3v22.7h-28.3z"/><ellipse cx="192.7" cy="357.4" fill="#346686" rx="122.1" ry="21.9"/><ellipse cx="376.5" cy="360.3" fill="#346686" rx="48" ry="8.8"/><path fill="#8bd2e4" d="M196 21.3c-10.7 0-21.4 1-32 3.1-12.9 2.6-25.6 7-36.9 14A71.3 71.3 0 0 0 97 73.3c-2.1 5-3.8 10.2-5.4 15.4-1.2 4-2 8-2.5 12-.6 5.6-.6 11.1-.7 16.7 0 11.5 0 23.1.8 34.7l1 13.8a235 235 0 0 1 .2 17.4 385.8 385.8 0 0 1-4.3 36.8c-1.7 10.3-3.4 20.6-4.7 30.9a107 107 0 0 0-.7 21.8 85 85 0 0 0 6.6 27.7 57.1 57.1 0 0 0 23.3 26.2c1 .6 2 1.2 3 .8.6-.2 1-.6 1.7-.6s1.5 0 1.7.7c.1.4-.1.8-.2 1.1-1.2 3.1-2.6 6-4 9-2 4.3-4.3 8.5-6 13-.7 1.8-1.5 3.7-1.4 5.8.1 1.5.9 2.9 1.7 4.2.4.6 1.1 1.2 2 1 .9-.2 1.3-1.2 1.7-2a16 16 0 0 1 2.8-4.6c.2-.2 0 .4 0 .6-.3 1.8-1.2 3.5-1.6 5.3-.2.7-.4 1.4-.3 2.2.4.8 1.4 1 2.2 1 2 .1 4-.7 5.5-2 2-1.7 3.6-3.9 5.2-6 3.6-5 6.6-10.2 10.3-15.1.8-1 1.6-2 2.7-2.7a2 2 0 0 1 2.6.8c.8 1.1 2.2 1.7 3.5 2.1 3 1 6.2 1.6 9.3 2.2a189.8 189.8 0 0 0 58.3.6c5-.7 10-1.8 14.8-3.1a86.6 86.6 0 0 0 55.5-43.8c4-8.1 6.9-16.8 9.2-25.6.3-1.4.8-3 .6-4.4 0-1-.7-1.9-1.5-2.3-.9-.5-1.8-1-2.8-.7-1.4.3-2.6 1.1-4 1.7a10 10 0 0 1-3.9 1.3c-2.2.2-4.4.1-6.6.1-1.8 0-3.7-.1-5.3-.8-2.4-1-4.7-2.3-6.7-4a19 19 0 0 1-5.9-8.8 20 20 0 0 1 .5-14.2c.3-.9.4-2 0-2.8-.5-1.1-1.2-2.1-2-3.1-.5-.8-1.2-1.8-2.2-2-.6-.2-1.1.1-1.7.2a115.5 115.5 0 0 1-11 1.7l-3.3.3-2.7.3a195.9 195.9 0 0 1-25.1.4c-3.7-.1-7.3-.2-11-.5l-1.6-.2c-3.6-.5-7.2-1.3-10.8-2.1a186.8 186.8 0 0 1-17.2-5.1 89.1 89.1 0 0 1-10.7-5c-.5-.3-1.3-.7-1.2-1.4V219c1 0 1.9.4 2.8.6 5.1 1.7 10 3.9 15.2 5.6 5.8 2 11.7 3.7 17.6 5 2.8.6 5.7 1 8.5 1.1 5.2.3 10.3.2 15.4.2 8 0 16.2-.4 24.2-1.3 4-.4 8.2-1 12.1-2.3 2.4-.7 4.7-1.9 6.4-3.7.6-.6 1.2-1.5 1-2.4-.4-.7-1.2-1-1.9-1.1-1.8-.6-3.7-.8-5.6-1.3-.3-.1-.7-.2-.9-.4l1.2-.1c2.2 0 4.4 0 6.4-.9 1-.4 2-1.2 2-2.4.1-1.2-.8-2.2-1.6-3a20 20 0 0 0-4.6-2.9c-2-.9-4.2-.8-6.3-.8-3.6 0-7.3.2-10.9.8-2.9.5-5.8 1.4-8.8 1.6l-3.6.3H215l-7-.1a80 80 0 0 1-24.8-4.8 320.1 320.1 0 0 1-25.7-11.7l-3.3-2c-.6-.6-.9-1.7-.3-2.3.3-.3.7 0 1 0a65 65 0 0 1 6.6 2.7l17.4 8a82.8 82.8 0 0 0 18 6c6 1 12 1 18 .9 5.2 0 10.4 0 15.5-.7l6.4-1 8.2-.7 7.7-.4 10.8-24.9c.3-.7.8-1.5.5-2.2-.3-1-1.3-1.5-2.1-2a19.8 19.8 0 0 1-7.6-9.3c-1.9-4.7-2.2-10-.7-14.9 1-3.1 2.8-6 5.1-8.4l.5-.5a23 23 0 0 1 7.6-4.8c2-.7 4-.6 6.1-.6 2 0 4 0 6 .3a26.9 26.9 0 0 1 9.3 5l1.7 1.4c1.5-1 3.1-2.1 4.5-3.3.6-.6 1.2-1.1 1.5-1.9.2-1 0-2 0-3-.2-5.4-.6-11-1-16.5l-1.5-14.2c-.2-.8-.2-1.7-.6-2.5-.3-.7-1-.7-1.6-.4-1.2.6-2.1 1.5-3 2.4a38.8 38.8 0 0 1-19.6 11 41 41 0 0 1-19.7-1.3l-4.6-1.4v4.5a12 12 0 0 1-2.2 6c-.7 1-1.8 1.6-2.9 2.2-1.4.8-2.8 1.4-4.3 2l-1.1 8.5a36 36 0 0 1-1.8 7.5 8.6 8.6 0 0 1-3.6 4.5c-.6.4-1.3.3-2 .4a42.8 42.8 0 0 1-5 .4h-8.8c-1.7 0-3.5-.2-4.9-1.3-.9-.8-1.7-1.7-2.4-2.7-1-1.6-1.3-3.6-1.6-5.4l-1-10.3-4.8-1c-2.5-.8-4.9-2.4-6.2-4.8a11.5 11.5 0 0 1-1-8 13 13 0 0 1 3.2-5.6l.5-.5c1-1 2.2-1.8 3.4-2.6l.7-.4a51 51 0 0 1 7-3.4c1.2-.6 2-1.8 2.3-3 .4-1.6 1.3-3 2.7-3.8a16 16 0 0 1 6.5-2c2-.2 4.2-.2 6.2-.5.7 0 1.5-.4 1.7-1.2.1-.7-.3-1.4-.4-2.1a48.2 48.2 0 0 1-2.2-15A36.3 36.3 0 0 1 242 46.7c3-1.5 6.1-2.6 9.5-3a76 76 0 0 1 5-.3l10.5-.5-9-6a98.3 98.3 0 0 0-31.3-12.6c-10-2.2-20.4-3.1-30.7-3zm83.5 11.2c-3.7 0-7.2 1.6-10 3.8l-2.4 1.8c1.9 2.3 3.7 4.7 5.7 6.9.5.5 1 1 1.6 1.3 1 .3 2-.3 2.7-.8 1.2-.7 2.3-1.7 3.6-2.3.8-.3 1.8-.7 2.7-.4.4 0 .5.5.4.9-.2 1.5-.8 3-1.5 4.2a3 3 0 0 1-.8 1c-.5.5-.4 1.3 0 1.9.8 1.3 2 2.4 3 3.5 1 1 2.1 2 3.4 3 .3.3 1 .3 1.3 0 .7-.6 1-1.5 1.5-2.3 1-2 2-4.1 2.1-6.4.2-1.9.2-3.7 0-5.6-.3-1.8-1-3.5-2.2-5-1.6-2-3.7-3.7-6.2-4.7-1.6-.6-3.2-.9-4.9-.8zm-184.7 8c-2 0-4 0-6 .3a8 8 0 0 0-3.6 1.7c-1.6 1-3 2.5-4.2 4a8.4 8.4 0 0 0-2.1 4.2c-.4 2-.4 3.9-.4 5.8 0 1.6 0 3.2.7 4.7a21.8 21.8 0 0 0 11 10.5c.6.2 1.2.6 1.9.6.6-.1 1-.8 1.3-1.4 1.5-2.6 2.7-5.4 4-8l.6-1.2c-1.4-.6-2.9-1.1-4.2-1.8a8.3 8.3 0 0 1-4-4.3c-.5-1-.4-2.3.5-3.2 1-1 2.3-1.3 3.6-1.3 2.1 0 4 1 5.6 2l2.8 2 6.5-7.3-3-3.1c-1.8-1.6-3.9-3-6.1-3.8-1.6-.5-3.3-.5-4.9-.5zm65.4 3a57.4 57.4 0 0 1 5.9.3 29.4 29.4 0 0 1 9.2 2.4l1.2.5a40 40 0 0 1 17.1 15c1.2 2.1 2.3 4.3 3.3 6.6l.3.7c1 2.1 1.6 4.4 1.9 6.7l.1.9v.7A44.1 44.1 0 0 1 199 88a41.9 41.9 0 0 1-2.7 10.7 32.4 32.4 0 0 1-6.4 9.6 52.7 52.7 0 0 1-5.4 5.2 39.5 39.5 0 0 1-23.1 8.4 80.3 80.3 0 0 1-12.8-.5l-1-.2a44.3 44.3 0 0 1-12-5.4 38.1 38.1 0 0 1-14.1-18.3c-.6-2-1-4-1.2-6a65.3 65.3 0 0 1 1.2-18.9A45 45 0 0 1 137 51c3.7-2.5 7.7-4.5 12-5.9a30.2 30.2 0 0 1 11.2-1.5zm135 101.4c-.9.1-1.4.7-2 1.2l-1.7 1.3c.6 1.5 1.2 3 2 4.4.3.7 1 1.2 1.8 1 .7 0 1.4-.5 1.4-1.2.1-1-.2-1.8-.2-2.6 0-1.1 0-2.3-.3-3.4-.1-.5-.6-.8-1-.7zm.1 11c-.7.2-1 1-1 1.8-.2 2-.2 4 0 6 0 .9.3 1.8 1 2.3a1 1 0 0 0 1.4-.6c.2-.6.1-1.3.2-2 0-2 .1-3.9-.1-5.8-.1-.6-.4-1.4-1-1.6h-.5zm-2.8 12.2-1.7 2.6-.5.7-3.2 3.7-.5.7c.5 1 1.3 2 2 3a68.6 68.6 0 0 0 4.4 5.2c.7-.2 1.1-.8 1.6-1.3.7-.9 1.6-1.8 2-2.8.3-1.1.2-2.3.3-3.5v-6.6c-1.3-.8-2.6-1.7-4-2.4l-.4.7zm-9.5 10c-1.2.1-2.2.8-3.4 1a28.6 28.6 0 0 1-5.9.5h-5.6c-3.5 7.8-7.1 15.7-10.5 23.6l-1.5 3.6 3.8 3.8a9 9 0 0 1 2.2 4c.3.9.5 1.8.9 2.6.2.1.3.4.6.4.2 0 .5 0 .7-.2l5-5.8c6.2-7 12.4-14.1 18.5-21.3l2.8-3.3-4.7-6.8c-.7-.9-1.4-1.9-2.6-2h-.3zm9.4 12.8c-2 1.9-3.7 4-5.5 6-5.8 6.5-11.7 13.2-17.4 19.9-1.8 2-3.7 4.1-5.3 6.4-.5.7-1.1 1.6-1 2.5a3 3 0 0 0 1.3 1.6c1 .5 2 .1 3 0l2-.6.8-.1a21.9 21.9 0 0 1 18.1 4.4c1.1.9 2 2 3.3 2.6.8.3 1.8.2 2.4-.6.7-1 .7-2.2.9-3.4a293.5 293.5 0 0 0 1-32c0-1.5 0-3-.7-4.3-.4-1-1.2-1.7-1.8-2.6-.2 0-.3-.6-.5-.4l-.6.6zm1.4 45.3c-.8 0-1.5 1-1.2 1.7.2.7 1.2 1 1.8.7.7-.3 1-1.3.5-1.9-.2-.3-.7-.5-1.1-.5zm-1.1 21c-.7.3-1 1-1.4 1.6-.4.7-1 1.4-.7 2.2.3.7 1 1.1 1.6 1.2.7 0 1.1-.7 1.3-1.3.2-1 .5-1.8.4-2.8 0-.5-.5-1-1-1l-.2.1z"/><path fill="#8bd2e4" d="M257.8 232.7c-.5-.6-1.7-2.3-1.7-2.5l3.5-2c.1 0 .2 0 .9 1 .4.6.5.7.2 1.1-.1.3-2.3 2.4-2.5 2.6l-.4-.2z"/><path fill="#edc599" d="m117 327.5-.3 1c-1.1 3.1-2.6 6-4 9-2 4.3-4.2 8.5-6 13a14 14 0 0 0-1.3 5.8c.1 1.5.8 2.9 1.7 4.1.4.7 1 1.3 2 1.1.8-.2 1.3-1.2 1.7-2a16 16 0 0 1 2.8-4.6c.2-.2 0 .4 0 .6-.3 1.8-1.2 3.5-1.6 5.3-.2.7-.5 1.4-.3 2.2.4.8 1.4 1 2.2 1 2 .1 4-.7 5.5-2 2-1.7 3.6-3.9 5.2-6 3.6-5 6.6-10.3 10.3-15.1.8-1 1.5-2 2.6-2.7l.3-.1c-5.3-5.3-12.6-9-20.8-10.6zm130-118.8a56.2 56.2 0 0 0-13 1.3 26.7 53.4 0 0 0 0 4.1 26.7 53.4 0 0 0 1.2 16.4l3.5-.4c4.1-.5 8.2-1 12.2-2.3 2.3-.8 4.6-2 6.4-3.7.6-.7 1.2-1.5.9-2.4-.3-.8-1.2-1-1.8-1.2-1.9-.6-3.8-.8-5.6-1.2l-1-.4c.4-.2.9-.1 1.3-.2 2.1 0 4.3 0 6.4-.8 1-.4 2-1.2 2-2.4s-.8-2.3-1.7-3a20 20 0 0 0-4.6-3c-2-.8-4.1-.7-6.2-.8zm19 115.9a3349 3349 0 0 1-12.8 9.3c-.6.4-1 1.2-.7 2 .4 1 1.2 1.7 2 2.5l6.7 6c2.3 2 4.5 3.9 7 5.6 1.6 1.2 3.5 1.8 5.5 2 1 0 2 0 2.7-.7.5-.4.5-1.2.3-1.8-.4-1.4-1.1-2.8-1.7-4.2l-.3-.8c1.3 1 2.1 2.3 3.4 3.2.5.5 1.2 1 1.9.8.7-.3 1-1.2 1-2-.2-1.5-.8-3-1.3-4.4a56 56 0 0 0-11-16l-2-2-.7.5zm-33.3-219-3.3 3.3a16.3 16.3 0 0 1-11.5 3.4 14 14 0 0 1-7.9-2.5c-1.2-1-2-2.3-3-3.5-.1-.2-.3-.6-.5-.3l-5.6 2.9a15 15 0 0 0-6.1 6.2 8.8 8.8 0 0 0-.3 6.8c.6 1.7 2.2 3 3.9 3.6 1.8.7 3.7.7 5.6.6 3.2-.2 6.4-.8 9.5-1.5 1.7-.3 3.5-.6 5.3-.7 3.7-.1 7.4.8 11.1 1 2.4.1 4.8 0 7-.9a7 7 0 0 0 3.6-3.7c.8-1.7 1-3.8.3-5.7-.9-2.5-2.7-4.6-4.5-6.5l-3-3.2c-.1.3-.4.5-.6.7z"/><circle cx="274.5" cy="246.7" r="17.3" fill="#f7ad48"/><circle cx="360.1" cy="293.2" r="17.3" fill="#f7ad48"/><circle cx="447.7" cy="243" r="17.7" fill="#f7ad48"/><circle cx="365.4" cy="204.1" r="17.5" fill="#f7ad48"/><circle cx="273.3" cy="158.9" r="17.6" fill="#f7ad48"/><circle cx="364.9" cy="104.4" r="17.8" fill="#f7ad48"/><circle cx="448.1" cy="154" r="18.5" fill="#f7ad48"/><path fill="#000" d="M181.8 17.3a162.6 162.6 0 0 0-37.2 8 124.2 124.2 0 0 0-31 17.1L112 44l-2.4-2.3a24.3 24.3 0 0 0-11-5.7 19.8 19.8 0 0 0-24 12.9 23 23 0 0 0-.3 12.8 24 24 0 0 0 16 14.7c.7.2.6.7-.7 4.8a143.8 143.8 0 0 0-5.6 51.4l1 18.4c.4 4.3.8 13.8 1 21.2.4 18.4-.3 26.5-4.3 49a225 225 0 0 0-5.2 42.5c-.2 9-.1 12.5.5 16.6a68.7 68.7 0 0 0 33.2 51.2c.5.2-.4 2.4-3.2 8.2-6.6 13.4-7.1 18.3-2.8 24.1 1.2 1.6 4.4 3.7 6.6 4.2 2.2.6 6 0 8.7-1.2 3.7-1.8 6.4-4.8 12.7-14.3l5.7-8.6 2.4.7c4 1.3 11.7 2.8 18.1 3.7 30 4.2 62.8.7 85-9.1l3.6-1.6 1.9 1.7 3.6 3.3c12.5 11.4 16.8 14.2 21.8 14.2 7.7 0 12.3-7.2 9.8-15.6a38.6 38.6 0 0 0-10.2-15.8l-3.8-4.2 3.4-3.9c9.5-11 16.5-25.2 21-42.6l1.3-4.8 17.6 12.8 22.8 16.6c3.5 2.5 5.8 4.5 7 6 5.4 7.4 15 10.6 23.7 7.9a21.6 21.6 0 0 0 13.4-28.6l-.9-2 9-4.9c20.2-11.1 29.8-15.7 30.3-16l4-2.7 3.5-2 3.5-1.8 2.4 2.4a21.2 21.2 0 0 0 20.7 5.9c3.9-1 6.9-2.6 10-5.8 6-5.9 8-14.8 5.2-22.6a22.8 22.8 0 0 0-15.3-13.8l-2.1-.5v-45.2l2.9-.7a21.9 21.9 0 0 0 7.5-38.5 21 21 0 0 0-26.2.3c-1 .8-2.1 1.4-2.5 1.3-.4-.1-6.9-4-14.5-8.4L395.1 116l-9-5.3.3-2A21.9 21.9 0 1 0 343 106l.3 3.3-16 10.1a3822 3822 0 0 0-21.6 13.9l-5.8 3.7-.1-2.7c-.5-13.7-1.7-24.7-3.5-34.5-1.1-5.8-1.1-6-.4-9.6.6-2.8.7-5 .5-9.7-.3-6.8-1-9.7-3.5-15.2l-1.8-3.8 2.2-3a19 19 0 0 0 .8-23 17 17 0 0 0-19.3-6.7c-3 .9-5.3 2.3-8.3 4.9l-2.3 1.8-4-2.5a113.4 113.4 0 0 0-48.8-15.8c-6-.7-22.8-.7-29.6 0zm28.6 5c19.2 1.7 36.5 7.5 49.6 16.5 4 2.7 6.4 4.8 4.8 4.3a38.8 38.8 0 0 0-20.2 1.7 36.6 36.6 0 0 0-23 36.4c.3 2.2 1.1 5.9 1.8 8l1.4 4.4c0 .2-2 .4-4.6.4-8.5 0-12.2 2-13.4 7.6-.2.9-.8 1.3-3.5 2.2-9.5 3.2-15 10.6-13.3 17.8 1.1 4.6 4.8 7.6 10.1 8.3l2.4.3v3.4c0 5 .7 9.6 1.8 11.6 2 4 6.3 5.8 12 5.1a49 49 0 0 1 6.8-.2c3.1 0 4.1 0 5.6-.8 3.3-1.7 5-5.8 6.1-15.2l.8-5.6 1.7-.7c2.7-1 4.8-2.6 6-4.3 1.3-2 2-5.6 1.7-7.8l-.3-1.6 3 1c3.8 1.5 9.7 2.5 13.8 2.5 10.6 0 22.2-5.6 28.8-14l1.7-2 .3 1.2c1.3 6.4 3.7 35.8 3 37.2 0 .2-1.4 1.1-2.8 2.1l-2.7 1.8-1.9-1.6a26 26 0 0 0-11.4-5.2c-11-1.7-21.8 6-24.1 17-.8 3.6-.3 9 1 12.4l1.1 2.8c1.3 2.3.8 1.6 2.7 4l1.7 1.6c1 .9 2.5 2 3.5 2.5s1.6 1 1.4 1.4a5031.4 5031.4 0 0 1-10 22.8l-1.5 3.6-4.5-.2c-3.7-.1-6 0-12.5 1.3-7.4 1.3-16.6 1.7-17.2 1.7l-7.3.2-2.9-.1a94.2 94.2 0 0 1-18.3-3.2c-6-1.8-13.9-5.2-24.5-10.5-9.4-4.8-11.2-5.3-12.2-3.7-1 1.7.2 2.8 8.5 7 8.8 4.5 15.4 7.4 22 9.6 15.7 5.5 34 7 48.3 3.8a48.7 48.7 0 0 1 17.2-1.8c6 .8 10.3 4 9.6 7-.4 1.4-1.6 1.8-6 1.8-3.6 0-3.9 0-3.9.9 0 .6.4.9 1.4 1 .7 0 2.8.4 4.5.8 3 .6 3.3.7 3 1.6-1.6 5.4-15 8.1-42 8.7a104 104 0 0 1-29.2-2.4c-6.2-1.4-19.1-5.7-25.2-8.4-5-2.3-6.8-2.5-7-.8-.3 1.6 1 2.7 4.7 4.5 12.2 5.6 28.8 10 42.8 11.3 12.7 1 41.4-.8 48.7-3.2 1-.4 1.3-.2 3 2.5l2 2.9-1 2.8a21.2 21.2 0 0 0 5 22.1 21 21 0 0 0 16.5 5.7c4.3-.1 4.8-.3 8.3-2l3.7-1.9 1.6 1 1.8 1.2a94 94 0 0 1-4.7 17.8c-11.7 34.1-37.4 54-77 59.7a179.2 179.2 0 0 1-61.3-2c-6.2-1.3-7-1.7-7.7-3.2-.4-1-1-1.3-2-1.4-1.3-.1-1.6.2-3.5 2.5l-4.3 6.3c-6.5 10.7-10.4 15.6-13.5 17-2.7 1.3-5.1 1-5.1-.6 0-.5.6-2.4 1.3-4 1.5-3.6 1.6-4.3.7-4.3-.7 0-3.4 3.8-4 5.6-.6 1.9-1.4 2-2.6.6-1.5-1.7-2-4-1.3-6.8a117 117 0 0 1 8.6-18.6c1.7-3.1 3-6.1 3-6.8 0-2-2.5-2.8-4-1.4-.7.7-1 .7-3-.5-5.9-3.5-14-11-17.9-16.5a77 77 0 0 1-11.6-36.4c-1-11.6.3-23.9 5.5-54.2 5.1-29.4 5.5-38.3 3-69a346 346 0 0 1-.5-47.5C91.6 87.2 97 71.6 103.8 61a68.2 68.2 0 0 1 21-20.7A120 120 0 0 1 175.5 23a244 244 0 0 1 34.8-.7zm68.5 10.5a13 13 0 0 1 10.2 4.1c2.6 2.8 3.5 5.7 3.3 10.2 0 3-.4 4-1.8 7-1 1.8-1.8 3.3-2 3.3-.2 0-1.9-1.7-3.8-3.7l-3.4-3.6.8-1.1c5-6.7 1.3-9.8-4.8-4.2-1.7 1.5-1.8 1.6-3.1.9a4 4 0 0 1-1.4-1c0-.2-1.1-1.7-2.5-3.3a26 26 0 0 1-2.4-3.1c0-.6 5.3-4 7.2-4.7a13 13 0 0 1 3.7-.8zM94 40.8c4.2 0 4.7 0 7.5 1.4 1.8 1 3.6 2.3 4.8 3.5l1.7 2-2.2 2.5c-1.3 1.4-2.6 3-3 3.6l-.7 1-1.3-1.3a13 13 0 0 0-6.7-3.2c-1.7 0-4.1 1.1-4.7 2.2-1.6 3 .4 6.3 5 8.3l3 1.3-1.3 2.2-2.3 4.8c-1.1 2.8-1.2 2.8-3.6 2A19.5 19.5 0 0 1 80 61.9c-1-2.1-1.2-3-1.2-6.7s.1-4.5 1.2-6.5a18 18 0 0 1 7.4-7c1.7-.8 2.9-1 6.5-1zm68 2c-3.4 0-7 0-9.4.6A42 42 0 0 0 120 76.2a51 51 0 0 0 .5 20.2 38.1 38.1 0 0 0 28.8 25.8c3.6.8 12.1 1 16.2.3 12.3-2 23.8-9.7 29.3-19.5 5.1-9 6.8-20.7 4.3-30.4a45 45 0 0 0-12.3-20c-4.7-4-10.3-7-15.6-8.5a41 41 0 0 0-9.2-1.3zm95.4 4.2a35.3 35.3 0 0 1 34.5 30 30 30 0 0 1-6.5 25.5 31.7 31.7 0 0 1-15.2 9.4 35 35 0 0 1-19 0c-16.2-4.7-28-23.7-24.4-39.7A30.8 30.8 0 0 1 257.4 47zm-95.5.2a34.4 34.4 0 0 1 30 19.8 36 36 0 0 1-7.6 42.2c-5 4.5-12.7 8.1-19.8 9.3a35.3 35.3 0 0 1-37-17.8 36.7 36.7 0 0 1 2.5-37.5 40.3 40.3 0 0 1 16.5-13.5 38.8 38.8 0 0 1 15.4-2.5zm113.4 22c-4-.1-8 2.9-8.5 7.8-.5 4.1 2 8.2 6 9.7 1.8.6 4.5.4 6.4-.5 1.8-1 3.9-3.6 4.4-5.6a9 9 0 0 0-2.9-9.3 8.4 8.4 0 0 0-5.4-2.1zm2.2 3.4c2 0 3.5 3 2.6 4.9-.6 1-1.7 1.2-3 .2-2-1.4-1.7-5.1.4-5.1zm-101.8.5h-1.5c-3.2.3-5.6 2-7 5a9.2 9.2 0 0 0 1.7 11.2c1 1 2.5 2 3.3 2.3 8 2.6 14.8-5.8 11-13.5a8.4 8.4 0 0 0-7.5-5zm2 3.5c.7 0 1.4.3 2 1 1 1 1.3 3.4.4 4.3-1.3 1.3-3.5.1-4.1-2.2-.4-1.8.5-3 1.8-3zM366 87.5a16 16 0 0 1 10.3 4.5c3.1 2.9 4.7 5.7 5.5 9.7A16.9 16.9 0 0 1 372 120a19 19 0 0 1-11 1.3 19.2 19.2 0 0 1-11.8-9.7c-1-2.3-1.2-3.1-1.2-7 0-4.2 0-4.7 1.4-7.5a17.1 17.1 0 0 1 16.5-9.5zm-133.3 18.1c.4 0 1.1.7 3.1 2.5 3.7 3.3 5.1 5.9 5.1 9.4 0 6.1-6.3 8.6-16 6.3-4.7-1.1-5.5-1.1-11.6.4-9.8 2.5-15 2.2-17.8-1-1.1-1.4-1.4-2-1.4-4 0-4.7 2.4-7.8 8.5-10.9l4-1.8c.1 0 1 .8 1.7 2 2.5 3.5 8 5.2 13.8 4.2 5.5-1 9.4-3.4 10.2-6.5 0-.4.2-.6.4-.6zm112.6 8.5c.2 0 .3.1.3.3a8 8 0 0 0 1.2 2.3l1.1 1.8-1 1.3a4130.5 4130.5 0 0 1-24.4 29.5l-2.5 3h-19.4l-.3-2.7a36 36 0 0 1-.1-5l.1-2.3 10.7-6.8a1809 1809 0 0 1 34.2-21.4zm39.1 1 22.4 13.3a1946 1946 0 0 1 22.7 13.7c.2.2 0 1.2-.5 2.2-.6 1-1.3 3.2-1.7 5l-.7 3H412l-9.3-10.5-15-17-5.6-6.4 1.1-1.7zm-5.8 6.5 2.2 2.3a3001.1 3001.1 0 0 1 24.2 27.4l1 1h-18.5l-6.2-13.9-6.2-14.2c0-.2.7-.8 1.6-1.5zm-27 0 1.9 1.3 1.8 1.2-6.3 14-6.3 14-8.3.1-8.4.2 11.2-13.5 12.8-15.4zm8 4 1.6.3c2 .5 6 .5 8 0l1.6-.2 5.8 13 6 13.3c0 .2-7.8.3-17.5.3h-17.6l3.7-8.2 6-13.4zm-137.9 2 3 .5c1.7.3 4 .6 5 .6h1.9l-.3 2.4c-1 9.6-1.6 11.5-4.2 13.9-1 1-1.8 1.3-3.8 1.5l-2.5.2.2-9.4c0-5.2.3-9.6.4-9.7h.3zm-4.3 0-.1 9.2c-.2 8.2-.3 9-1 9.6-2.2 1.6-6.7-.3-8.2-3.4-1-1.7-1-2.7-1-7.6v-5.6l5.1-1.1 5.2-1zM448 137a16.9 16.9 0 0 1 7.4 32.2 13 13 0 0 1-6.5 1.4c-5.8.2-9.7-1.5-13.5-5.7a15 15 0 0 1-4-10.9c0-4.7 1.2-7.9 4.3-11.3 3.4-3.7 7.9-5.6 12.3-5.7zm-174 5c2 0 3.9.4 5.8 1.1 3.7 1.4 8.1 5.8 9.6 9.6a19 19 0 0 1-.1 13.2 20 20 0 0 1-8.3 8.7 20 20 0 0 1-12 .8 18 18 0 0 1-12.1-19.5 16.6 16.6 0 0 1 17.1-14zm21.3 3.8c.2 0 .3 1 .3 2 0 1.2.2 2.6.3 3.1.2.7 0 1-.6 1.2-.7.2-1-.2-1.9-2l-1-2.3 1.3-1c.7-.6 1.4-1 1.6-1zm5.2 11.1h15.8l-1.1 1.2a518 518 0 0 0-10.2 11.8c-.1.1-1.1-.3-2.2-1l-2-1.1-.2-5.5zm22 0h18l-1.9 4.3a1432 1432 0 0 1-10.2 22.3l-19.3-10.7 6.6-8zm93.4 0h10.9l.8 3c.5 1.6.7 3 .5 3.2-.2.2-1.3.9-2.5 1.5l-2 1.2-3.9-4.4zm-120.4 0c.4 0 .6 1.1.6 4.2 0 2.4-.1 4.3-.2 4.3-.6 0-1-1.6-1-4.8 0-2.7.2-3.7.6-3.7zm104 .1c7.5 0 10 0 10.5.5 1 .7 9.5 10.7 9.4 10.8a911.6 911.6 0 0 1-19.4 11.3l-.5-1-5.1-11.2-4.7-10.3zm-54.1.1h39.4l3.9 8.7a2476 2476 0 0 0 7.2 16 44 44 0 0 1-6.9 4.6l-6.9 4.3-1.7-1.8a23.3 23.3 0 0 0-13.1-6.4c-3-.4-7.8.5-11 2a28 28 0 0 0-9.9 9c-.3 0-6.1-3.2-10.4-5.7-2.5-1.5-3.4-2.2-3.2-2.8l6.4-14.3zm85.6 9.7 2.3 2.4 2.3 2.3-1.6 2-1.8 2.1a53 53 0 0 1-5.1-6.1c0-.2.8-.9 2-1.5zm-137.8 1.8 1.5.9 1.4.9v4.6c0 4.6 0 4.7-1.4 6.4a10 10 0 0 1-1.7 1.8c-.2 0-1.4-1.7-2.9-3.6l-2.6-3.7 1.6-1.6c.8-.9 2.1-2.5 2.8-3.7zm129.2 3.5c.3 0 2 1.6 3.7 3.7l3.2 3.8-8.3 10.8-9.3 12.1c-.9 1.2-1 1.3-1.2.5l-4.4-9.7a82 82 0 0 1-3.9-9.3c.2-.5 19.5-12 20.2-12zm-121.4.8c.2 0 .4.2.4.5l-.4.7c-.3.1-.5 0-.5-.5 0-.3.2-.7.5-.7zm138.5 1 3.4 1 3.3 1v8l-.1 8.2c-.3 0-10.3-12-10.5-12.5 0-.2.8-1.5 2-3zM305.7 176l10.3 5.7c5.7 3.2 10.3 5.9 10.3 6.1a656 656 0 0 1-10 21.5l-1.3 2.8-7.2-9.3-7.3-9.3v-12.2l2.6-2.6zm-22.5 2.6c.6 0 1.6 1.1 3.7 4 1.6 2.3 3 4.4 2.8 4.7-.1.3-5.7 6.8-12.4 14.4a2931 2931 0 0 0-13.4 15.3l-1.3 1.6.3-1.7c.6-3-1.8-7-5.7-9.4-.6-.4-.2-1.5 2.5-7.8l6-13.4 2.8-6 4.5.1a18.4 18.4 0 0 0 10.2-1.8zm149.2 5.1c.2 0 1.8 1.7 3.6 3.8l6.8 7.9 3.4 3.9V221H445a20 20 0 0 0-10.9 4.7 25 25 0 0 1-2.7 2l-6-2.8-5.9-2.7-3.1-7-3.2-6.9 6.8-9a213 213 0 0 1 12.3-15.7zm-35 3.1c1 0 1.5 1.5 3.2 5.2l4.9 10.6 2.3 5-2.4 3.2-2.5 3.4c-.1 0-3.7-1.5-8-3.6l-7.7-3.7-.1-3.2c0-2-.6-4.4-1.2-6.3l-1-3 3.3-2.2 5.7-3.5c1.9-1.1 2.8-1.9 3.5-1.9zm-32 .6c6 0 12.1 3.7 15 9.5 2 4 2.2 9.2.8 13-1.8 4.9-5 8-9.6 9.8a17 17 0 0 1-21.6-8.9c-1-2-1.1-3-1.1-6.7 0-3.6.1-4.5 1.2-6.8a17.3 17.3 0 0 1 15.3-10zm-34.9 2.5 1.6 1 7.3 4c5.4 3 5.6 3 5.2 4.2-.2.6-.4 2.7-.4 4.7v3.7l-11.5 5.9-11.8 5.9c-.1 0-.8-.7-1.4-1.6l-1.3-1.6 6.2-13.1zM293 191l1.5 1.7c1.1 1.7 1.1 1.9 1.1 8.6 0 6.9-.6 22-1.1 27.9-.3 2.8-.4 3.2-1.4 3.6-1.4.7-1.2.7-2.4-.6-5.4-5.8-13.7-8-21.8-6l-3.8.9-1-1-1.1-1.2 4.1-4.8a510.7 510.7 0 0 1 25.9-29zm7.4 10.3c.3 0 2 2 7.6 9.2l5 6.4-2 4-2 4-5 2.4-4.8 2.3v-1.1l.4-8a307.3 307.3 0 0 0 .8-19.2zm85.7 9.8 6.8 3.4c3.7 1.8 6.7 3.5 6.6 3.7A240.2 240.2 0 0 1 392 229c-.1.2-2.6-2-5.5-4.7l-5.2-5.2 1.6-2c.9-1.2 2-3 2.5-4zm-41 .7c.2 0 .7.6 1.2 1.6 2.4 5 7.5 9.3 12.9 11 5 1.6 11.4 1 16.3-1.3 1.2-.6 2-.7 2.5-.5.4.2 3 2.7 5.8 5.5l5 5.1-3.3 4.6-3.3 4.7h-21.6l-21.5.2-6.5-8.3-7.7-10-1.2-1.6 10.4-5.3a355.9 355.9 0 0 0 11-5.7zm65 1h.1l2.6 5.6c0 .4-.6.2-3-1-2-.9-2.3-1.2-2-1.8.8-1.2 2-2.8 2.4-2.8zm-5.8 7.5c1.4.1 11.7 4.7 12.2 5.5.7 1.5 7.4 16.2 7.4 16.5 0 .2-4.1.4-9.2.4h-9.3l-5.1-5-5.2-5.1 4.4-6a224.6 224.6 0 0 1 4.8-6.3zm-88.2.6c.3 0 .4.2.2.4l-.4.4-.2-.4c0-.2.2-.4.4-.4zm3.2 4 6.5 8.3 7 9c.3.4-2.4.5-13.3.5-7.5 0-13.6-.1-13.6-.3 0-.2 1.4-3.4 3.2-7.2l3.2-7 3.5-1.6zm127.3.7c5.2-.4 10 1.5 13.7 5.6A16.9 16.9 0 1 1 432 249a17.9 17.9 0 0 1 0-12.8c1.4-3.7 5.8-8.1 9.4-9.5a19 19 0 0 1 5.2-1.1zM259.7 228l.8 1c.7 1 .7 1-.8 2.5l-1.6 1.5c-.3 0-2.2-2.7-2-2.9l1.9-1zm162.9.7 3.1 1.3c2.5 1 3.1 1.5 2.9 2-.2.4-.7 1.7-1 2.9-.9 2.2-1.4 3-1.4 2.1 0-.3-.8-2.3-1.8-4.3l-1.8-4zm-146.7 1.7a16.8 16.8 0 0 1 15 12.2 14 14 0 0 1 0 8.3 17 17 0 0 1-11 12 20 20 0 0 1-10.8 0c-2.9-1-6.4-3.5-8-5.7a15.2 15.2 0 0 1-3.1-10c0-3.3.2-4.1 1.4-6.7 3-6.4 8-9.8 14.6-10l1.9-.1zm29.6 1.4a256 256 0 0 1-2.4 6c-2.2 4.8-2.3 5-3.7 5H298l.4-3.2.3-4c0-.6 1.2-1.4 3.6-2.5 1.8-.9 2.8-1.3 3.2-1.3zm86.6 4.8 3.4 3 3.3 3.2h-11l2.1-3c1.2-1.7 2.2-3 2.2-3.2zm-98.3.4c.3 0 .5.2.5.4 0 .3-.2.5-.5.5a.4.4 0 0 1-.4-.5c0-.2.2-.4.4-.4zM410 247l5.5.1 8.3.1h2.7l.7 2 .6 1.8a306.8 306.8 0 0 1-8.5 4.7l-4.7-4.3zm-111.7.2c.2 0 .4.2.4.4l-.4 1c-.4.5-.4.5-.4-.4 0-.5.2-1 .4-1zm5.3 0h16.6l16.6.1 9.5 12.3 9.4 12.3-2.6 1a25 25 0 0 0-3.9 1.8L346 277l-2 1.7-14-7.3-22-11.4c-9-4.7-8.5-3.8-6-9.4zm39.2 0H379l-1.5 2-9 11.5a156 156 0 0 1-7.7 9.7c-.3 0-12.9-16.1-16.6-21.3zm42 0h18.7l5.8 5.5 5.7 5.4-3.2 1.7a1893.1 1893.1 0 0 0-34.8 19l-2-1.7a24.4 24.4 0 0 0-9-5.2 861.2 861.2 0 0 0 15.3-20zM293 258c.2 0 .2.5 0 1.5-.5 2-.6 2-1.3 1.6-.4-.3-.4-.7.2-1.8.5-.9.9-1.3 1-1.3zm5.7 2.5 16 8.2 21 11 5.7 3-1 2a19 19 0 0 0-1 6.5l-.3 4.4-9.6-7-21-15.3L297 265l.5-2.3c.4-1.5.7-2.2 1-2.2zm61.4 15.8h1.7c6 .4 11 3.8 13.7 9.2 1.3 2.7 1.4 3.3 1.4 7.2 0 3.9 0 4.5-1.4 7.2-1.9 3.7-5.4 7-8.9 8.4a19 19 0 0 1-9.7.8 20 20 0 0 1-8.5-4.9 18.4 18.4 0 0 1-4.4-13.5c1.4-8.4 8-14.2 16.1-14.4zm-93.5 48 3 3.3c7.6 8.1 11.7 16.2 10.4 20.2-.4 1.3-1.3 2-1.3 1.1 0-.7-2.8-4.6-3.6-5-1.4-.7-1.5.6-.2 2.6 1.6 2.4 2 4.3.8 5-1.6.8-3.8.5-6.1-.9a134 134 0 0 1-14.8-12.4l-3.2-3 4.4-2.8c2.3-1.5 5.7-4 7.5-5.4z"/></svg>
